<svg xmlns="http://www.w3.org/2000/svg" enable-background="new 0 0 32 32" viewBox="0 0 32 32" id="information">
  <path d="M16,0.5C7.45001,0.5,0.5,7.45001,0.5,16S7.45001,31.5,16,31.5S31.5,24.54999,31.5,16S24.54999,0.5,16,0.5z M17.5,23.66998c0,0.83002-0.66998,1.5-1.5,1.5s-1.5-0.66998-1.5-1.5v-9.56c0-0.83002,0.66998-1.5,1.5-1.5s1.5,0.66998,1.5,1.5V23.66998z M17.5,9.69c0,0.82996-0.66998,1.5-1.5,1.5s-1.5-0.67004-1.5-1.5V8.32996c0-0.82996,0.66998-1.5,1.5-1.5s1.5,0.67004,1.5,1.5V9.69z"></path>
</svg>
